<?xml version="1.0" encoding="iso-8859-1"?>
<!-- Generator: Adobe Illustrator 19.0.0, SVG Export Plug-In . SVG Version: 6.00 Build 0)  -->
<svg version="1.1" id="Capa_1" xmlns="http://www.w3.org/2000/svg" xmlns:xlink="http://www.w3.org/1999/xlink" x="0px" y="0px"
	 viewBox="0 0 480 480" style="enable-background:new 0 0 480 480;" xml:space="preserve">
<linearGradient id="SVGID_1_" gradientUnits="userSpaceOnUse" x1="-58.6482" y1="587.625" x2="28.8879" y2="587.625" gradientTransform="matrix(8 0 0 -8 449.9401 4941)">
	<stop  offset="0" style="stop-color:#E93E3A"/>
	<stop  offset="0.366" style="stop-color:#ED683C"/>
	<stop  offset="0.715" style="stop-color:#F3903F"/>
	<stop  offset="1" style="stop-color:#FDC70C"/>
</linearGradient>
<path style="fill:url(#SVGID_1_);" d="M352.723,400h-288V16h288v112h16V8c0-4.418-3.582-8-8-8h-320c-22.08,0.026-39.974,17.92-40,40
	v400c0.026,22.08,17.92,39.974,40,40h320c4.418,0,8-3.582,8-8V360h-16V400z M40.723,16h8v384h-8c-8.684,0.029-17.117,2.914-24,8.208
	V40C16.723,26.745,27.468,16,40.723,16z M352.723,464h-312c-13.255,0-24-10.745-24-24s10.745-24,24-24h312V464z"/>
<g>
	
		<linearGradient id="SVGID_2_" gradientUnits="userSpaceOnUse" x1="-58.6482" y1="591.8465" x2="28.8879" y2="591.8465" gradientTransform="matrix(8 0 0 -8 449.9401 4941)">
		<stop  offset="0" style="stop-color:#E93E3A"/>
		<stop  offset="0.366" style="stop-color:#ED683C"/>
		<stop  offset="0.715" style="stop-color:#F3903F"/>
		<stop  offset="1" style="stop-color:#FDC70C"/>
	</linearGradient>
	<path style="fill:url(#SVGID_2_);" d="M233.691,160.976c-24.95,25.009-24.95,65.495,0,90.504l11.312-11.312
		c-18.713-18.758-18.713-49.122,0-67.88L233.691,160.976z"/>
	
		<linearGradient id="SVGID_3_" gradientUnits="userSpaceOnUse" x1="-58.6482" y1="585.2181" x2="28.8879" y2="585.2181" gradientTransform="matrix(8 0 0 -8 449.9401 4941)">
		<stop  offset="0" style="stop-color:#E93E3A"/>
		<stop  offset="0.366" style="stop-color:#ED683C"/>
		<stop  offset="0.715" style="stop-color:#F3903F"/>
		<stop  offset="1" style="stop-color:#FDC70C"/>
	</linearGradient>
	<path style="fill:url(#SVGID_3_);" d="M476.931,358.96l-56.56-56.56c-9.382-9.352-24.562-9.352-33.944,0l-32.448-32.456
		c34.236-40.484,29.172-101.056-11.312-135.292s-101.056-29.172-135.292,11.312s-29.172,101.056,11.312,135.292
		c35.786,30.264,88.194,30.264,123.98,0l32.456,32.448c-9.373,9.372-9.375,24.568-0.003,33.941c0.001,0.001,0.002,0.002,0.003,0.003
		l56.568,56.568c3.124,3.123,8.188,3.123,11.312,0l33.936-33.944C480.06,367.146,480.056,362.082,476.931,358.96z M224.131,264.56
		c-31.242-31.242-31.243-81.895-0.001-113.137s81.895-31.243,113.137-0.001s31.243,81.895,0.001,113.137
		c0,0-0.001,0.001-0.001,0.001c-31.253,31.188-81.854,31.191-113.112,0.008L224.131,264.56z M437.339,387.248l-50.912-50.92
		c-3.123-3.124-3.123-8.188,0-11.312l11.312-11.312c3.122-3.126,8.188-3.129,11.314-0.006c0.002,0.002,0.004,0.004,0.006,0.006
		l50.904,50.912L437.339,387.248z"/>
	
		<linearGradient id="SVGID_4_" gradientUnits="userSpaceOnUse" x1="-58.6482" y1="603.625" x2="28.8879" y2="603.625" gradientTransform="matrix(8 0 0 -8 449.9401 4941)">
		<stop  offset="0" style="stop-color:#E93E3A"/>
		<stop  offset="0.366" style="stop-color:#ED683C"/>
		<stop  offset="0.715" style="stop-color:#F3903F"/>
		<stop  offset="1" style="stop-color:#FDC70C"/>
	</linearGradient>
	<path style="fill:url(#SVGID_4_);" d="M320.723,96V64c0-4.418-3.582-8-8-8h-208c-4.418,0-8,3.582-8,8v96c0,4.418,3.582,8,8,8h72
		v-16h-64V72h192v24H320.723z"/>
	
		<linearGradient id="SVGID_5_" gradientUnits="userSpaceOnUse" x1="-58.6482" y1="591.625" x2="28.8879" y2="591.625" gradientTransform="matrix(8 0 0 -8 449.9401 4941)">
		<stop  offset="0" style="stop-color:#E93E3A"/>
		<stop  offset="0.366" style="stop-color:#ED683C"/>
		<stop  offset="0.715" style="stop-color:#F3903F"/>
		<stop  offset="1" style="stop-color:#FDC70C"/>
	</linearGradient>
	<path style="fill:url(#SVGID_5_);" d="M96.723,200h72v16h-72V200z"/>
	
		<linearGradient id="SVGID_6_" gradientUnits="userSpaceOnUse" x1="-58.6482" y1="585.625" x2="28.8879" y2="585.625" gradientTransform="matrix(8 0 0 -8 449.9401 4941)">
		<stop  offset="0" style="stop-color:#E93E3A"/>
		<stop  offset="0.366" style="stop-color:#ED683C"/>
		<stop  offset="0.715" style="stop-color:#F3903F"/>
		<stop  offset="1" style="stop-color:#FDC70C"/>
	</linearGradient>
	<path style="fill:url(#SVGID_6_);" d="M96.723,248h80v16h-80V248z"/>
	
		<linearGradient id="SVGID_7_" gradientUnits="userSpaceOnUse" x1="-58.6482" y1="579.625" x2="28.8879" y2="579.625" gradientTransform="matrix(8 0 0 -8 449.9401 4941)">
		<stop  offset="0" style="stop-color:#E93E3A"/>
		<stop  offset="0.366" style="stop-color:#ED683C"/>
		<stop  offset="0.715" style="stop-color:#F3903F"/>
		<stop  offset="1" style="stop-color:#FDC70C"/>
	</linearGradient>
	<path style="fill:url(#SVGID_7_);" d="M96.723,296h112v16h-112V296z"/>
	
		<linearGradient id="SVGID_8_" gradientUnits="userSpaceOnUse" x1="-58.6482" y1="573.625" x2="28.8879" y2="573.625" gradientTransform="matrix(8 0 0 -8 449.9401 4941)">
		<stop  offset="0" style="stop-color:#E93E3A"/>
		<stop  offset="0.366" style="stop-color:#ED683C"/>
		<stop  offset="0.715" style="stop-color:#F3903F"/>
		<stop  offset="1" style="stop-color:#FDC70C"/>
	</linearGradient>
	<path style="fill:url(#SVGID_8_);" d="M96.723,344h224v16h-224V344z"/>
</g>
<g>
</g>
<g>
</g>
<g>
</g>
<g>
</g>
<g>
</g>
<g>
</g>
<g>
</g>
<g>
</g>
<g>
</g>
<g>
</g>
<g>
</g>
<g>
</g>
<g>
</g>
<g>
</g>
<g>
</g>
</svg>
