<?xml version="1.0" encoding="iso-8859-1"?>
<!-- Generator: Adobe Illustrator 19.0.0, SVG Export Plug-In . SVG Version: 6.00 Build 0)  -->
<svg version="1.1" id="Capa_1" xmlns="http://www.w3.org/2000/svg" xmlns:xlink="http://www.w3.org/1999/xlink" x="0px" y="0px"
	 viewBox="0 0 480.046 480.046" style="enable-background:new 0 0 480.046 480.046;" xml:space="preserve">
<linearGradient id="SVGID_1_" gradientUnits="userSpaceOnUse" x1="-59.574" y1="592.1476" x2="28.211" y2="592.1476" gradientTransform="matrix(8 0 0 -8 454.6779 4977.2041)">
	<stop  offset="0" style="stop-color:#E93E3A"/>
	<stop  offset="0.366" style="stop-color:#ED683C"/>
	<stop  offset="0.715" style="stop-color:#F3903F"/>
	<stop  offset="1" style="stop-color:#FDC70C"/>
</linearGradient>
<path style="fill:url(#SVGID_1_);" d="M464.046,252.023v-56c0,0,0-0.064,0-0.096c-0.041-3.44-2.277-6.468-5.552-7.52l-224-72
	c-1.592-0.512-3.304-0.512-4.896,0l-224,72c-4.214,1.328-6.554,5.82-5.226,10.034c0.764,2.425,2.636,4.343,5.042,5.166
	l58.632,20.416v132c0,4.418,3.582,8,8,8c1.731,0,3.415-0.561,4.8-1.6c22.112-15.138,48.409-22.972,75.2-22.4
	c26.791-0.572,53.088,7.262,75.2,22.4c2.835,2.109,6.717,2.109,9.552,0c22.125-15.148,48.441-22.982,75.248-22.4
	c26.791-0.572,53.089,7.262,75.2,22.4c3.535,2.651,8.549,1.935,11.2-1.6c1.039-1.385,1.6-3.069,1.6-4.8v-132l48-16.736v44.736
	c-8.837,0-16,7.163-16,16v64c0,8.837,7.163,16,16,16h16c8.837,0,16-7.163,16-16v-64
	C480.046,259.186,472.883,252.023,464.046,252.023z M384.046,341.439c-22.192-11.667-46.929-17.651-72-17.416
	c-28.246-0.406-56.014,7.311-80,22.232c-23.986-14.921-51.754-22.638-80-22.232c-25.071-0.235-49.808,5.749-72,17.416V203.263
	l152-15.2l152,15.2V341.439z M400.046,207.079v-11.056c0.021-4.124-3.097-7.588-7.2-8l-160-16c-0.532-0.056-1.068-0.056-1.6,0
	l-160,16c-4.103,0.412-7.221,3.876-7.2,8v11.056l-30.824-10.744l198.824-63.912l198.824,63.912L400.046,207.079z M448.046,332.023
	v-64h16v64H448.046z"/>
<g>
</g>
<g>
</g>
<g>
</g>
<g>
</g>
<g>
</g>
<g>
</g>
<g>
</g>
<g>
</g>
<g>
</g>
<g>
</g>
<g>
</g>
<g>
</g>
<g>
</g>
<g>
</g>
<g>
</g>
</svg>
