<?xml version="1.0" encoding="iso-8859-1"?>
<!-- Generator: Adobe Illustrator 19.0.0, SVG Export Plug-In . SVG Version: 6.00 Build 0)  -->
<svg version="1.1" id="Capa_1" xmlns="http://www.w3.org/2000/svg" xmlns:xlink="http://www.w3.org/1999/xlink" x="0px" y="0px"
	 viewBox="0 0 480 480" style="enable-background:new 0 0 480 480;" xml:space="preserve">
<linearGradient id="SVGID_1_" gradientUnits="userSpaceOnUse" x1="-58.8491" y1="605.625" x2="28.0649" y2="605.625" gradientTransform="matrix(8 0 0 -8 455.0004 5085)">
	<stop  offset="0" style="stop-color:#E93E3A"/>
	<stop  offset="0.36" style="stop-color:#ED683C"/>
	<stop  offset="0.714" style="stop-color:#F3903F"/>
	<stop  offset="1" style="stop-color:#FDC70C"/>
</linearGradient>
<path style="fill:url(#SVGID_1_);" d="M479.704,149.848v-0.04c0-0.096-0.096-0.168-0.128-0.264
	c-0.208-0.654-0.502-1.278-0.872-1.856c-0.157-0.229-0.328-0.448-0.512-0.656c-0.314-0.4-0.668-0.767-1.056-1.096
	c-0.228-0.197-0.468-0.379-0.72-0.544c-0.167-0.137-0.34-0.265-0.52-0.384c-0.261-0.121-0.528-0.228-0.8-0.32
	c-0.26-0.121-0.527-0.225-0.8-0.312c-0.627-0.186-1.275-0.294-1.928-0.32c-0.12,0-0.224-0.056-0.344-0.056H448V40
	c0-4.418-3.582-8-8-8H40c-4.418,0-8,3.582-8,8v104H8c-0.12,0-0.224,0.048-0.336,0.056c-0.659,0.027-1.311,0.135-1.944,0.32
	c-0.272,0.08-0.52,0.2-0.8,0.304s-0.56,0.184-0.8,0.328c-0.18,0.119-0.353,0.247-0.52,0.384c-0.252,0.165-0.492,0.347-0.72,0.544
	c-0.388,0.329-0.742,0.696-1.056,1.096c-0.184,0.208-0.355,0.427-0.512,0.656c-0.37,0.578-0.664,1.202-0.872,1.856
	c0,0.096-0.096,0.168-0.128,0.264v0.04C0.111,150.548,0.006,151.272,0,152v288c0,0.16,0.064,0.312,0.072,0.472
	c0.028,0.415,0.092,0.828,0.192,1.232c0.069,0.37,0.168,0.734,0.296,1.088c0.056,0.144,0.056,0.296,0.12,0.432
	c0.121,0.218,0.255,0.429,0.4,0.632c0.178,0.343,0.381,0.672,0.608,0.984c0.246,0.309,0.513,0.6,0.8,0.872
	c0.252,0.261,0.519,0.507,0.8,0.736c0.348,0.237,0.714,0.446,1.096,0.624c0.217,0.143,0.441,0.274,0.672,0.392
	c0.088,0,0.184,0,0.272,0.048C6.184,447.826,7.088,447.991,8,448h464c4.418,0,8-3.582,8-8V152
	C480,151.273,479.9,150.549,479.704,149.848L479.704,149.848z M48,48h384v119.392l-192,119.2L87.64,192H352v-16H80v11.256
	l-32-19.864V48z M16,166.4L163.576,258L16,419.392V166.4z M26.152,432l151.256-165.44l58.4,36.24c2.584,1.605,5.855,1.605,8.44,0
	l58.4-36.24L453.848,432H26.152z M464,419.392L316.424,257.976L464,166.4V419.392z"/>
<g>
	
		<linearGradient id="SVGID_2_" gradientUnits="userSpaceOnUse" x1="-58.8491" y1="624.625" x2="28.0649" y2="624.625" gradientTransform="matrix(8 0 0 -8 455.0004 5085)">
		<stop  offset="0" style="stop-color:#E93E3A"/>
		<stop  offset="0.36" style="stop-color:#ED683C"/>
		<stop  offset="0.714" style="stop-color:#F3903F"/>
		<stop  offset="1" style="stop-color:#FDC70C"/>
	</linearGradient>
	<path style="fill:url(#SVGID_2_);" d="M80,80h32v16H80V80z"/>
	
		<linearGradient id="SVGID_3_" gradientUnits="userSpaceOnUse" x1="-58.8491" y1="624.625" x2="28.0649" y2="624.625" gradientTransform="matrix(8 0 0 -8 455.0004 5085)">
		<stop  offset="0" style="stop-color:#E93E3A"/>
		<stop  offset="0.36" style="stop-color:#ED683C"/>
		<stop  offset="0.714" style="stop-color:#F3903F"/>
		<stop  offset="1" style="stop-color:#FDC70C"/>
	</linearGradient>
	<path style="fill:url(#SVGID_3_);" d="M128,80h272v16H128V80z"/>
	
		<linearGradient id="SVGID_4_" gradientUnits="userSpaceOnUse" x1="-58.8491" y1="618.625" x2="28.0649" y2="618.625" gradientTransform="matrix(8 0 0 -8 455.0004 5085)">
		<stop  offset="0" style="stop-color:#E93E3A"/>
		<stop  offset="0.36" style="stop-color:#ED683C"/>
		<stop  offset="0.714" style="stop-color:#F3903F"/>
		<stop  offset="1" style="stop-color:#FDC70C"/>
	</linearGradient>
	<path style="fill:url(#SVGID_4_);" d="M80,128h320v16H80V128z"/>
</g>
<g>
</g>
<g>
</g>
<g>
</g>
<g>
</g>
<g>
</g>
<g>
</g>
<g>
</g>
<g>
</g>
<g>
</g>
<g>
</g>
<g>
</g>
<g>
</g>
<g>
</g>
<g>
</g>
<g>
</g>
</svg>
