<?xml version="1.0" encoding="iso-8859-1"?>
<!-- Generator: Adobe Illustrator 19.0.0, SVG Export Plug-In . SVG Version: 6.00 Build 0)  -->
<svg version="1.1" id="Capa_1" xmlns="http://www.w3.org/2000/svg" xmlns:xlink="http://www.w3.org/1999/xlink" x="0px" y="0px"
	 viewBox="0 0 480 480" style="enable-background:new 0 0 480 480;" xml:space="preserve">
<linearGradient id="SVGID_1_" gradientUnits="userSpaceOnUse" x1="-60.237" y1="574.625" x2="24.315" y2="574.625" gradientTransform="matrix(8 0 0 -8 483 4941)">
	<stop  offset="0" style="stop-color:#E93E3A"/>
	<stop  offset="0.366" style="stop-color:#ED683C"/>
	<stop  offset="0.715" style="stop-color:#F3903F"/>
	<stop  offset="1" style="stop-color:#FDC70C"/>
</linearGradient>
<path style="fill:url(#SVGID_1_);" d="M380,344c0-17.673-14.327-32-32-32s-32,14.327-32,32s14.327,32,32,32S380,361.673,380,344z
	 M332,344c0-8.837,7.163-16,16-16s16,7.163,16,16s-7.163,16-16,16S332,352.837,332,344z"/>
<linearGradient id="SVGID_2_" gradientUnits="userSpaceOnUse" x1="-60.237" y1="563.625" x2="24.315" y2="563.625" gradientTransform="matrix(8 0 0 -8 483 4941)">
	<stop  offset="0" style="stop-color:#E93E3A"/>
	<stop  offset="0.366" style="stop-color:#ED683C"/>
	<stop  offset="0.715" style="stop-color:#F3903F"/>
	<stop  offset="1" style="stop-color:#FDC70C"/>
</linearGradient>
<path style="fill:url(#SVGID_2_);" d="M356,384h-16c-22.08,0.026-39.974,17.92-40,40v48c0,4.418,3.582,8,8,8h80c4.418,0,8-3.582,8-8
	v-48C395.974,401.92,378.08,384.026,356,384z M380,464h-64v-40c0-13.255,10.745-24,24-24h16c13.255,0,24,10.745,24,24V464z"/>
<linearGradient id="SVGID_3_" gradientUnits="userSpaceOnUse" x1="-60.237" y1="574.625" x2="24.315" y2="574.625" gradientTransform="matrix(8 0 0 -8 483 4941)">
	<stop  offset="0" style="stop-color:#E93E3A"/>
	<stop  offset="0.366" style="stop-color:#ED683C"/>
	<stop  offset="0.715" style="stop-color:#F3903F"/>
	<stop  offset="1" style="stop-color:#FDC70C"/>
</linearGradient>
<path style="fill:url(#SVGID_3_);" d="M268,344c0-17.673-14.327-32-32-32s-32,14.327-32,32s14.327,32,32,32S268,361.673,268,344z
	 M220,344c0-8.837,7.163-16,16-16c8.837,0,16,7.163,16,16s-7.163,16-16,16C227.163,360,220,352.837,220,344z"/>
<linearGradient id="SVGID_4_" gradientUnits="userSpaceOnUse" x1="-60.237" y1="563.625" x2="24.315" y2="563.625" gradientTransform="matrix(8 0 0 -8 483 4941)">
	<stop  offset="0" style="stop-color:#E93E3A"/>
	<stop  offset="0.366" style="stop-color:#ED683C"/>
	<stop  offset="0.715" style="stop-color:#F3903F"/>
	<stop  offset="1" style="stop-color:#FDC70C"/>
</linearGradient>
<path style="fill:url(#SVGID_4_);" d="M244,384h-16c-22.08,0.026-39.974,17.92-40,40v48c0,4.418,3.582,8,8,8h80c4.418,0,8-3.582,8-8
	v-48C283.974,401.92,266.08,384.026,244,384z M268,464h-64v-40c0-13.255,10.745-24,24-24h16c13.255,0,24,10.745,24,24V464z"/>
<linearGradient id="SVGID_5_" gradientUnits="userSpaceOnUse" x1="-60.237" y1="574.625" x2="24.315" y2="574.625" gradientTransform="matrix(8 0 0 -8 483 4941)">
	<stop  offset="0" style="stop-color:#E93E3A"/>
	<stop  offset="0.366" style="stop-color:#ED683C"/>
	<stop  offset="0.715" style="stop-color:#F3903F"/>
	<stop  offset="1" style="stop-color:#FDC70C"/>
</linearGradient>
<path style="fill:url(#SVGID_5_);" d="M124,312c-17.673,0-32,14.327-32,32s14.327,32,32,32s32-14.327,32-32S141.673,312,124,312z
	 M124,360c-8.837,0-16-7.163-16-16s7.163-16,16-16s16,7.163,16,16S132.837,360,124,360z"/>
<g>
	
		<linearGradient id="SVGID_6_" gradientUnits="userSpaceOnUse" x1="-60.237" y1="563.625" x2="24.315" y2="563.625" gradientTransform="matrix(8 0 0 -8 483 4941)">
		<stop  offset="0" style="stop-color:#E93E3A"/>
		<stop  offset="0.366" style="stop-color:#ED683C"/>
		<stop  offset="0.715" style="stop-color:#F3903F"/>
		<stop  offset="1" style="stop-color:#FDC70C"/>
	</linearGradient>
	<path style="fill:url(#SVGID_6_);" d="M132,384h-16c-22.08,0.026-39.974,17.92-40,40v48c0,4.418,3.582,8,8,8h80
		c4.418,0,8-3.582,8-8v-48C171.974,401.92,154.08,384.026,132,384z M156,464H92v-40c0-13.255,10.745-24,24-24h16
		c13.255,0,24,10.745,24,24V464z"/>
	
		<linearGradient id="SVGID_7_" gradientUnits="userSpaceOnUse" x1="-60.237" y1="591.625" x2="24.315" y2="591.625" gradientTransform="matrix(8 0 0 -8 483 4941)">
		<stop  offset="0" style="stop-color:#E93E3A"/>
		<stop  offset="0.366" style="stop-color:#ED683C"/>
		<stop  offset="0.715" style="stop-color:#F3903F"/>
		<stop  offset="1" style="stop-color:#FDC70C"/>
	</linearGradient>
	<path style="fill:url(#SVGID_7_);" d="M148,280V176h88c4.418,0,8-3.582,8-8v-32c0-4.418-3.582-8-8-8H60
		c-22.08,0.026-39.974,17.92-40,40v112c0,4.418,3.582,8,8,8h112C144.418,288,148,284.418,148,280z M132,168v104H36V168
		c0-13.255,10.745-24,24-24h168v16h-88C135.582,160,132,163.582,132,168z"/>
	
		<linearGradient id="SVGID_8_" gradientUnits="userSpaceOnUse" x1="-60.237" y1="602.625" x2="24.315" y2="602.625" gradientTransform="matrix(8 0 0 -8 483 4941)">
		<stop  offset="0" style="stop-color:#E93E3A"/>
		<stop  offset="0.366" style="stop-color:#ED683C"/>
		<stop  offset="0.715" style="stop-color:#F3903F"/>
		<stop  offset="1" style="stop-color:#FDC70C"/>
	</linearGradient>
	<path style="fill:url(#SVGID_8_);" d="M452,0H180c-4.418,0-8,3.582-8,8v104h16V16h256v208H188v-32h-16v40c0,4.418,3.582,8,8,8h272
		c4.418,0,8-3.582,8-8V8C460,3.582,456.418,0,452,0z"/>
	
		<linearGradient id="SVGID_9_" gradientUnits="userSpaceOnUse" x1="-60.237" y1="610.625" x2="24.315" y2="610.625" gradientTransform="matrix(8 0 0 -8 483 4941)">
		<stop  offset="0" style="stop-color:#E93E3A"/>
		<stop  offset="0.366" style="stop-color:#ED683C"/>
		<stop  offset="0.715" style="stop-color:#F3903F"/>
		<stop  offset="1" style="stop-color:#FDC70C"/>
	</linearGradient>
	<path style="fill:url(#SVGID_9_);" d="M220,48h16v16h-16V48z"/>
	
		<linearGradient id="SVGID_10_" gradientUnits="userSpaceOnUse" x1="-60.237" y1="610.625" x2="24.315" y2="610.625" gradientTransform="matrix(8 0 0 -8 483 4941)">
		<stop  offset="0" style="stop-color:#E93E3A"/>
		<stop  offset="0.366" style="stop-color:#ED683C"/>
		<stop  offset="0.715" style="stop-color:#F3903F"/>
		<stop  offset="1" style="stop-color:#FDC70C"/>
	</linearGradient>
	<path style="fill:url(#SVGID_10_);" d="M252,48h160v16H252V48z"/>
	
		<linearGradient id="SVGID_11_" gradientUnits="userSpaceOnUse" x1="-60.237" y1="606.625" x2="24.315" y2="606.625" gradientTransform="matrix(8 0 0 -8 483 4941)">
		<stop  offset="0" style="stop-color:#E93E3A"/>
		<stop  offset="0.366" style="stop-color:#ED683C"/>
		<stop  offset="0.715" style="stop-color:#F3903F"/>
		<stop  offset="1" style="stop-color:#FDC70C"/>
	</linearGradient>
	<path style="fill:url(#SVGID_11_);" d="M220,80h192v16H220V80z"/>
	
		<linearGradient id="SVGID_12_" gradientUnits="userSpaceOnUse" x1="-60.237" y1="602.625" x2="24.315" y2="602.625" gradientTransform="matrix(8 0 0 -8 483 4941)">
		<stop  offset="0" style="stop-color:#E93E3A"/>
		<stop  offset="0.366" style="stop-color:#ED683C"/>
		<stop  offset="0.715" style="stop-color:#F3903F"/>
		<stop  offset="1" style="stop-color:#FDC70C"/>
	</linearGradient>
	<path style="fill:url(#SVGID_12_);" d="M260,112h152v16H260V112z"/>
	
		<linearGradient id="SVGID_13_" gradientUnits="userSpaceOnUse" x1="-60.237" y1="598.625" x2="24.315" y2="598.625" gradientTransform="matrix(8 0 0 -8 483 4941)">
		<stop  offset="0" style="stop-color:#E93E3A"/>
		<stop  offset="0.366" style="stop-color:#ED683C"/>
		<stop  offset="0.715" style="stop-color:#F3903F"/>
		<stop  offset="1" style="stop-color:#FDC70C"/>
	</linearGradient>
	<path style="fill:url(#SVGID_13_);" d="M260,144h152v16H260V144z"/>
	
		<linearGradient id="SVGID_14_" gradientUnits="userSpaceOnUse" x1="-60.237" y1="594.625" x2="24.315" y2="594.625" gradientTransform="matrix(8 0 0 -8 483 4941)">
		<stop  offset="0" style="stop-color:#E93E3A"/>
		<stop  offset="0.366" style="stop-color:#ED683C"/>
		<stop  offset="0.715" style="stop-color:#F3903F"/>
		<stop  offset="1" style="stop-color:#FDC70C"/>
	</linearGradient>
	<path style="fill:url(#SVGID_14_);" d="M260,176h152v16H260V176z"/>
	
		<linearGradient id="SVGID_15_" gradientUnits="userSpaceOnUse" x1="-60.237" y1="607.625" x2="24.315" y2="607.625" gradientTransform="matrix(8 0 0 -8 483 4941)">
		<stop  offset="0" style="stop-color:#E93E3A"/>
		<stop  offset="0.366" style="stop-color:#ED683C"/>
		<stop  offset="0.715" style="stop-color:#F3903F"/>
		<stop  offset="1" style="stop-color:#FDC70C"/>
	</linearGradient>
	<path style="fill:url(#SVGID_15_);" d="M84,120c17.673,0,32-14.327,32-32V72c0-17.673-14.327-32-32-32S52,54.327,52,72v16
		C52,105.673,66.327,120,84,120z M68,72c0-8.837,7.163-16,16-16s16,7.163,16,16v16c0,8.837-7.163,16-16,16s-16-7.163-16-16V72z"/>
</g>
<g>
</g>
<g>
</g>
<g>
</g>
<g>
</g>
<g>
</g>
<g>
</g>
<g>
</g>
<g>
</g>
<g>
</g>
<g>
</g>
<g>
</g>
<g>
</g>
<g>
</g>
<g>
</g>
<g>
</g>
</svg>
